<svg width="118" height="118" viewBox="0 0 118 118" fill="none" xmlns="http://www.w3.org/2000/svg">
<path d="M58.5381 22.8528V46.7105H82.2949C82.2949 46.6749 82.2949 46.6393 82.2949 46.6096C82.2949 33.4885 71.6592 22.8528 58.5381 22.8528Z" fill="#3E8BEF"/>
<path d="M58.5381 46.7105V22.8528C45.417 22.8528 34.7812 33.4885 34.7812 46.6096C34.7812 59.7308 45.417 70.3665 58.5381 70.3665V46.7105Z" fill="#3E8BEF"/>
<path d="M58.5381 46.7107V70.3667V94.2244C71.6592 94.2244 82.2949 83.5887 82.2949 70.4676C82.2949 57.3464 71.6592 46.7107 58.5381 46.7107Z" fill="#19397F"/>
<path d="M34.7812 70.3665C34.7812 70.402 34.7812 70.4376 34.7812 70.4673C34.7812 83.5884 45.417 94.2242 58.5381 94.2242V70.3665H34.7812Z" fill="#293C5E"/>
<path d="M58.5381 82.6808V82.1114C64.9622 82.1114 70.1822 76.8854 70.1822 70.4672C70.1822 64.0431 64.9563 58.8231 58.5381 58.8231V58.2537C65.2707 58.2537 70.7517 63.7346 70.7517 70.4672C70.7517 77.1998 65.2707 82.6808 58.5381 82.6808Z" fill="white"/>
<path d="M58.5378 58.8232C51.8052 58.8232 46.3242 53.3422 46.3242 46.6096C46.3242 39.877 51.8052 34.396 58.5378 34.396V34.9654C52.1137 34.9654 46.8937 40.1914 46.8937 46.6096C46.8937 53.0337 52.1196 58.2537 58.5378 58.2537V58.8232Z" fill="white"/>
<mask id="mask0_862_1872" style="mask-type:luminance" maskUnits="userSpaceOnUse" x="34" y="22" width="25" height="49">
<path d="M58.5381 46.7105V22.8528C45.417 22.8528 34.7812 33.4885 34.7812 46.6096C34.7812 59.7308 45.417 70.3665 58.5381 70.3665V46.7105Z" fill="white"/>
</mask>
<g mask="url(#mask0_862_1872)">
<path d="M34.4961 46.7105H58.5377V22.6689H34.4961V46.7105Z" fill="url(#paint0_linear_862_1872)"/>
</g>
<mask id="mask1_862_1872" style="mask-type:luminance" maskUnits="userSpaceOnUse" x="58" y="46" width="25" height="49">
<path d="M58.5381 46.7107V70.3667V94.2244C71.6592 94.2244 82.2949 83.5887 82.2949 70.4676C82.2949 57.3464 71.6592 46.7107 58.5381 46.7107Z" fill="white"/>
</mask>
<g mask="url(#mask1_862_1872)">
<path d="M82.5797 70.1826H58.5381V94.2242H82.5797V70.1826Z" fill="url(#paint1_linear_862_1872)"/>
</g>
<path d="M58.5393 101.989C34.5808 101.989 15.0889 82.4971 15.0889 58.5386C15.0889 34.58 34.5808 15.0881 58.5393 15.0881C82.4978 15.0881 101.99 34.58 101.99 58.5386C101.99 82.4971 82.4978 101.989 58.5393 101.989ZM58.5393 16.144C35.1621 16.144 16.1447 35.1613 16.1447 58.5386C16.1447 81.9158 35.1621 100.933 58.5393 100.933C81.9165 100.933 100.934 81.9158 100.934 58.5386C100.934 35.1613 81.9165 16.144 58.5393 16.144Z" fill="#3E8BEF"/>
<path d="M10.8824 58.3073C11.0781 58.1946 11.2205 58.0463 11.3095 57.8505C11.4044 57.6607 11.4518 57.459 11.4578 57.2455C11.4637 57.0913 11.4459 56.937 11.4163 56.7828C11.3807 56.6345 11.3273 56.4921 11.2561 56.3735C11.1849 56.2489 11.0841 56.154 10.9595 56.0769C10.8349 55.9998 10.6866 55.9583 10.5146 55.9524C10.3782 55.9464 10.2595 55.9642 10.1587 56.0057C10.0519 56.0473 9.95703 56.1125 9.87398 56.2015C9.785 56.2964 9.70789 56.421 9.63078 56.5811C9.55366 56.7413 9.47655 56.937 9.39351 57.1684C9.31639 57.3938 9.22742 57.6133 9.13844 57.8268C9.04946 58.0403 8.93676 58.2242 8.80626 58.3844C8.67576 58.5445 8.50967 58.6691 8.31392 58.764C8.11817 58.853 7.87496 58.8945 7.58431 58.8886C7.28772 58.8767 7.03265 58.8115 6.82504 58.6869C6.61149 58.5623 6.43947 58.4022 6.30304 58.2064C6.16661 58.0107 6.06577 57.7853 6.00645 57.5302C5.94713 57.2751 5.91747 57.0201 5.92934 56.7472C5.93527 56.5752 5.95306 56.4032 5.98865 56.2311C6.02424 56.0591 6.07763 55.893 6.14881 55.7388C6.21999 55.5786 6.30304 55.4363 6.41574 55.2999C6.52252 55.1634 6.65302 55.0507 6.80724 54.9558L7.28179 55.5727C7.06231 55.6914 6.89029 55.8693 6.77165 56.0888C6.65301 56.3142 6.58776 56.5515 6.58183 56.8125C6.5759 56.9608 6.5937 57.115 6.63522 57.2692C6.67674 57.4234 6.73606 57.5658 6.81911 57.6904C6.90215 57.8149 7.00299 57.9158 7.13349 57.9988C7.25806 58.0819 7.40635 58.1234 7.57244 58.1293C7.75633 58.1353 7.90462 58.1115 8.02326 58.0522C8.1419 57.9929 8.24274 57.9039 8.33171 57.7793C8.42069 57.6548 8.4978 57.4946 8.57492 57.3048C8.6461 57.1091 8.73508 56.8836 8.82999 56.6286C8.90117 56.421 8.98421 56.2252 9.07912 56.0532C9.1681 55.8752 9.2808 55.7269 9.4113 55.6024C9.5418 55.4778 9.69603 55.377 9.87398 55.3058C10.0519 55.2346 10.2655 55.2049 10.5087 55.2109C10.7934 55.2227 11.0366 55.2821 11.2442 55.4007C11.4518 55.5193 11.6239 55.6736 11.7603 55.8693C11.8967 56.0651 11.9976 56.2786 12.0628 56.5218C12.1281 56.765 12.1577 57.0141 12.1459 57.2751C12.134 57.6073 12.0747 57.9158 11.962 58.1827C11.8493 58.4556 11.6654 58.6988 11.3985 58.9064L10.8824 58.3073Z" fill="#293C5E"/>
<path d="M7.95798 60.0274C8.2605 60.0037 8.54523 60.0393 8.80029 60.1283C9.05536 60.2172 9.28077 60.3477 9.47652 60.5198C9.67227 60.6918 9.82649 60.8994 9.94513 61.1485C10.0638 61.3977 10.129 61.6705 10.1527 61.9731C10.1705 62.2696 10.1409 62.5544 10.0578 62.8154C9.97479 63.0764 9.85022 63.3077 9.68413 63.5035C9.51804 63.6992 9.31043 63.8594 9.06722 63.9839C8.82402 64.1085 8.55116 64.1797 8.2427 64.1975C7.94018 64.2212 7.65545 64.1856 7.40039 64.0966C7.14532 64.0077 6.91991 63.8772 6.72416 63.7051C6.52841 63.5331 6.37419 63.3255 6.25555 63.0764C6.13691 62.8272 6.07166 62.5544 6.04794 62.2519C6.03014 61.9493 6.0598 61.6705 6.14284 61.4095C6.22589 61.1485 6.35046 60.9172 6.51655 60.7214C6.68264 60.5257 6.89025 60.3655 7.13346 60.241C7.37666 60.1223 7.64952 60.0512 7.95798 60.0274ZM8.00543 60.7274C7.79782 60.7392 7.61393 60.7867 7.44191 60.8638C7.26989 60.9409 7.12752 61.0418 7.00296 61.1723C6.87839 61.3028 6.78941 61.457 6.72416 61.629C6.65891 61.801 6.63518 61.9968 6.65298 62.2103C6.66484 62.4239 6.71823 62.6078 6.80721 62.7739C6.89618 62.9399 7.00889 63.0764 7.14532 63.1891C7.28175 63.3018 7.44191 63.3848 7.61986 63.4382C7.79782 63.4916 7.99357 63.5094 8.19525 63.4916C8.40286 63.4797 8.58675 63.4323 8.75877 63.3552C8.93079 63.2781 9.07315 63.1772 9.19772 63.0467C9.32229 62.9162 9.41127 62.762 9.47652 62.59C9.54177 62.4179 9.56549 62.2222 9.5477 62.0146C9.53583 61.801 9.48245 61.6172 9.39347 61.4511C9.3045 61.285 9.19179 61.1485 9.05536 61.0358C8.91893 60.9231 8.75877 60.8401 8.58081 60.7867C8.40286 60.7333 8.20711 60.7155 8.00543 60.7274Z" fill="#293C5E"/>
<path d="M9.84407 68.0649C9.98644 67.8988 10.0813 67.7328 10.1288 67.5607C10.1763 67.3887 10.1881 67.2048 10.1525 67.015C10.1169 66.8015 10.0458 66.6176 9.94492 66.4634C9.84407 66.3091 9.71951 66.1905 9.57121 66.1074C9.42292 66.0244 9.25683 65.9651 9.07294 65.9414C8.88905 65.9117 8.69924 65.9176 8.50349 65.9473C8.30774 65.9829 8.12385 66.0422 7.96369 66.1312C7.80354 66.2261 7.66117 66.3388 7.54847 66.4693C7.43576 66.6057 7.35272 66.754 7.30526 66.926C7.25781 67.0981 7.25188 67.2819 7.28154 67.4777C7.35272 67.8989 7.56626 68.2014 7.92217 68.3793L7.54847 68.931C7.30526 68.7827 7.10951 68.5869 6.97308 68.3497C6.83072 68.1124 6.74174 67.8573 6.69429 67.5726C6.64683 67.276 6.65276 66.9972 6.70615 66.7303C6.76547 66.4693 6.87224 66.232 7.02054 66.0303C7.17476 65.8287 7.36458 65.6566 7.59592 65.5202C7.82726 65.3838 8.09419 65.2889 8.39078 65.2414C8.68144 65.194 8.96024 65.1999 9.22123 65.2533C9.48223 65.3067 9.71951 65.4075 9.93305 65.5558C10.1407 65.7041 10.3186 65.888 10.461 66.1193C10.6033 66.3447 10.6983 66.6116 10.7457 66.9082C10.7932 67.193 10.7872 67.4718 10.7279 67.7446C10.6686 68.0175 10.5559 68.2666 10.3779 68.492L9.84407 68.0649Z" fill="#293C5E"/>
<path d="M11.108 69.2631L11.2563 69.8978L7.4481 70.7758L7.2998 70.1411L11.108 69.2631ZM12.5672 68.7708C12.6918 68.7411 12.8104 68.7589 12.9232 68.8301C13.0359 68.9013 13.107 68.9962 13.1367 69.1267C13.1664 69.2572 13.1426 69.3759 13.0714 69.4886C13.0003 69.6013 12.8994 69.6724 12.7749 69.6962C12.6384 69.7258 12.5198 69.708 12.413 69.6428C12.3062 69.5775 12.2351 69.4767 12.2054 69.3403C12.1757 69.2038 12.1935 69.0852 12.2588 68.9784C12.33 68.8717 12.4308 68.8005 12.5672 68.7708Z" fill="#293C5E"/>
<path d="M9.52458 75.5034C9.16867 75.367 8.89581 75.1831 8.69412 74.9518C8.49838 74.7204 8.34415 74.4298 8.23738 74.0798C8.1484 73.7891 8.11874 73.5103 8.15433 73.2434C8.18399 72.9765 8.26703 72.7392 8.3916 72.5197C8.51617 72.3062 8.68819 72.1164 8.90174 71.9562C9.11528 71.796 9.35849 71.6715 9.63135 71.5884C9.91607 71.4995 10.1949 71.4698 10.4677 71.4876C10.7406 71.5113 10.9897 71.5766 11.2151 71.6952C11.4405 71.8138 11.6363 71.974 11.8024 72.1816C11.9685 72.3892 12.099 72.6265 12.182 72.9053C12.2591 73.1663 12.2888 73.4214 12.271 73.6646C12.2532 73.9078 12.182 74.1391 12.0575 74.3467C11.9388 74.5543 11.7668 74.7382 11.5533 74.8984C11.3338 75.0585 11.0728 75.1831 10.7643 75.278L10.5626 75.3373L9.64321 72.318C9.48899 72.3774 9.34662 72.4604 9.21612 72.5731C9.09155 72.6858 8.99071 72.8104 8.9136 72.9528C8.83649 73.0951 8.78903 73.2434 8.77124 73.4095C8.75344 73.5697 8.76531 73.7417 8.81869 73.9078C8.90174 74.1806 9.02037 74.3942 9.1746 74.5484C9.32883 74.7086 9.51864 74.8331 9.74998 74.9221L9.52458 75.5034ZM10.883 74.501C11.1973 74.3942 11.4228 74.2103 11.5533 73.9552C11.6838 73.7002 11.6956 73.3976 11.5948 73.0536C11.488 72.7095 11.31 72.4545 11.049 72.3002C10.794 72.146 10.4974 72.0926 10.1652 72.152L10.883 74.501Z" fill="#293C5E"/>
<path d="M11.3095 80.0117L11.3036 79.9939C11.0485 79.9701 10.8053 79.8634 10.5562 79.6795C10.313 79.4956 10.1231 79.2405 9.9867 78.9202C9.87993 78.6711 9.82655 78.4101 9.83248 78.1491C9.83248 77.8881 9.88586 77.6449 9.9867 77.4076C10.0875 77.1763 10.2358 76.9627 10.4257 76.7729C10.6155 76.5831 10.8527 76.4289 11.1197 76.3161C11.3925 76.2034 11.6654 76.1441 11.9323 76.1382C12.2052 76.1323 12.4543 76.1797 12.6975 76.2687C12.9348 76.3636 13.1543 76.506 13.3441 76.6958C13.5399 76.8915 13.6941 77.1288 13.8127 77.4076C13.9254 77.6686 13.9729 77.9296 13.9551 78.1965C13.9373 78.4575 13.8661 78.7126 13.7415 78.9617L13.7475 78.9795L16.488 77.8228L16.743 78.4219L10.9239 80.8777L10.6689 80.2786L11.3095 80.0117ZM12.4721 79.5253C12.6619 79.4422 12.8221 79.3414 12.9645 79.2109C13.1009 79.0863 13.2077 78.938 13.2789 78.7719C13.35 78.6058 13.3916 78.4338 13.3916 78.2499C13.3975 78.066 13.356 77.8762 13.2729 77.6805C13.1899 77.4847 13.0831 77.3246 12.9467 77.1941C12.8102 77.0695 12.6619 76.9746 12.4899 76.9093C12.3238 76.85 12.1459 76.8203 11.9561 76.8322C11.7722 76.8381 11.5824 76.8856 11.3925 76.9627C11.2027 77.0458 11.0366 77.1466 10.9002 77.2712C10.7638 77.3957 10.657 77.544 10.5858 77.7101C10.5146 77.8762 10.4731 78.0482 10.4731 78.2321C10.4672 78.416 10.5087 78.6058 10.5917 78.8016C10.6748 78.9973 10.7816 79.1575 10.918 79.282C11.0544 79.4066 11.2027 79.5015 11.3747 79.5668C11.5408 79.6261 11.7188 79.6558 11.9086 79.6439C12.0925 79.6439 12.2823 79.6024 12.4721 79.5253Z" fill="#293C5E"/>
<path d="M14.6436 80.7234C14.9224 80.8005 15.1656 80.9369 15.3851 81.1327C15.6045 81.3284 15.7825 81.5479 15.913 81.7971C16.1918 82.3072 16.2689 82.7402 16.1503 83.0961C16.0316 83.452 15.7291 83.7605 15.2427 84.0274L13.7657 84.8282C13.6708 84.8816 13.5699 84.9409 13.4691 85.0061C13.3682 85.0714 13.2793 85.1366 13.1962 85.2019L12.8996 84.6502C12.9649 84.585 13.0479 84.5316 13.1428 84.4782C13.2377 84.4248 13.3208 84.3774 13.392 84.3359L13.386 84.324C13.1488 84.3062 12.9234 84.235 12.7039 84.1105C12.4903 83.9859 12.3065 83.7901 12.1641 83.5232C12.0692 83.3452 11.998 83.1732 11.9624 82.9953C11.9209 82.8173 11.915 82.6453 11.9387 82.4851C11.9624 82.325 12.0158 82.1767 12.1107 82.0343C12.1997 81.8979 12.3302 81.7852 12.4963 81.6903C12.781 81.536 13.042 81.4886 13.2852 81.5479C13.5284 81.6072 13.7479 81.7259 13.9436 81.8979C14.1394 82.0699 14.3173 82.2835 14.4716 82.5207C14.6258 82.7639 14.7622 82.9893 14.8809 83.197L14.9995 83.4164L15.1003 83.363C15.3495 83.2266 15.4978 83.0487 15.5452 82.8292C15.5927 82.6097 15.5393 82.3665 15.3969 82.0996C15.2961 81.9157 15.1656 81.7496 15.0054 81.6013C14.8453 81.4589 14.6673 81.3522 14.4656 81.281L14.6436 80.7234ZM14.2046 83.1139C14.0029 82.7461 13.7953 82.4851 13.5759 82.325C13.3564 82.1648 13.131 82.153 12.8937 82.2775C12.6802 82.3962 12.5675 82.5504 12.5556 82.7461C12.5437 82.9419 12.5971 83.1436 12.7157 83.3571C12.8047 83.5232 12.9115 83.6537 13.0361 83.7486C13.1606 83.8435 13.2911 83.9088 13.4276 83.9384C13.564 83.9681 13.7064 83.974 13.8606 83.9503C14.0089 83.9266 14.1572 83.8791 14.2995 83.8079L14.519 83.6893L14.2046 83.1139Z" fill="#293C5E"/>
<path d="M16.4526 88.9094L16.4467 88.8975C16.1916 88.9213 15.9306 88.8679 15.6518 88.7374C15.373 88.6069 15.1417 88.3933 14.94 88.1027C14.7858 87.8773 14.6849 87.6341 14.6316 87.379C14.5841 87.1239 14.5841 86.8689 14.6375 86.6197C14.6909 86.3706 14.7917 86.1333 14.94 85.9138C15.0883 85.6884 15.29 85.4927 15.5332 85.3266C15.7764 85.1605 16.0315 85.0478 16.2925 84.9885C16.5535 84.9292 16.8145 84.9232 17.0636 84.9648C17.3127 85.0063 17.5559 85.1071 17.7813 85.2554C18.0068 85.4037 18.2084 85.6113 18.3805 85.8605C18.5406 86.0977 18.6415 86.3409 18.677 86.6019C18.7126 86.8629 18.6948 87.1299 18.6177 87.3968L18.6296 87.4087L21.0854 85.73L21.4531 86.2698L16.2331 89.8288L15.8654 89.289L16.4526 88.9094ZM17.4966 88.1976C17.6686 88.079 17.8051 87.9485 17.9118 87.7942C18.0186 87.64 18.0957 87.4798 18.1313 87.3019C18.1728 87.1299 18.1728 86.946 18.1373 86.768C18.1017 86.5841 18.0246 86.4062 17.9059 86.2342C17.7873 86.0621 17.6449 85.9257 17.4907 85.8249C17.3305 85.724 17.1644 85.6647 16.9865 85.635C16.8085 85.6054 16.6306 85.6173 16.4467 85.6647C16.2687 85.7122 16.0908 85.7893 15.9188 85.9079C15.7467 86.0266 15.6103 86.1571 15.5035 86.3113C15.3968 86.4655 15.3197 86.6257 15.2841 86.8036C15.2425 86.9756 15.2425 87.1595 15.2781 87.3375C15.3137 87.5214 15.3908 87.6993 15.5095 87.8713C15.6281 88.0434 15.7645 88.1857 15.9247 88.2806C16.0849 88.3755 16.2509 88.4408 16.4289 88.4705C16.6068 88.5001 16.7848 88.4883 16.9687 88.4408C17.1526 88.3933 17.3246 88.3162 17.4966 88.1976Z" fill="#293C5E"/>
<path d="M24.6562 90.6294L25.1129 91.1039L22.5801 97.012L22.0165 96.4188L22.6512 94.9774L20.6048 92.842L19.1337 93.4055L18.582 92.8301L24.6562 90.6294ZM24.2232 91.4776L24.2113 91.4658L21.2632 92.5928L22.936 94.3368L24.2232 91.4776Z" fill="#293C5E"/>
<path d="M25.4272 95.47C25.5459 95.3336 25.6467 95.2031 25.7416 95.0785C25.8365 94.954 25.9255 94.8412 26.0085 94.7463L26.4771 95.1497C26.406 95.2268 26.3407 95.3099 26.2755 95.3929C26.2102 95.476 26.139 95.559 26.0679 95.642L26.0797 95.6539C26.1746 95.6124 26.2814 95.5827 26.4 95.5709C26.5187 95.5531 26.6432 95.559 26.7737 95.5768C26.9042 95.5946 27.0347 95.6361 27.1652 95.6954C27.2957 95.7547 27.4262 95.8378 27.5449 95.9446C27.5805 95.9742 27.6101 96.0039 27.6398 96.0395C27.6694 96.0751 27.6991 96.1107 27.7169 96.1522L27.2542 96.6208C27.189 96.5199 27.1119 96.431 27.0229 96.3539C26.7204 96.0929 26.4178 95.998 26.1094 96.0751C25.8009 96.1522 25.5043 96.3598 25.2077 96.7038L23.9621 98.1453L23.4697 97.7182L25.4272 95.47Z" fill="#293C5E"/>
<path d="M29.1401 101.977C28.719 102.552 28.2503 102.879 27.7343 102.962C27.2241 103.045 26.6843 102.879 26.1327 102.469C25.8242 102.244 25.5751 101.989 25.3912 101.716C25.2073 101.443 25.0828 101.117 25.0234 100.731L25.7175 100.577C25.753 100.88 25.8302 101.141 25.9488 101.372C26.0674 101.603 26.2454 101.805 26.4886 101.983C26.7199 102.155 26.9394 102.262 27.147 102.309C27.3546 102.351 27.5445 102.351 27.7224 102.297C27.9004 102.244 28.0605 102.155 28.2088 102.03C28.3571 101.906 28.4935 101.757 28.6122 101.591L28.9088 101.188L28.8969 101.176C28.624 101.283 28.3512 101.313 28.0783 101.259C27.8055 101.206 27.5682 101.099 27.3546 100.945C27.1055 100.761 26.9098 100.559 26.7615 100.322C26.6132 100.091 26.5182 99.8474 26.4767 99.5923C26.4352 99.3432 26.4471 99.0881 26.5123 98.8271C26.5776 98.5721 26.6962 98.3229 26.8682 98.0916C27.058 97.8365 27.2657 97.6349 27.497 97.4866C27.7283 97.3383 27.9715 97.2493 28.2207 97.2137C28.4698 97.1781 28.7249 97.2018 28.9918 97.2789C29.2528 97.3561 29.5079 97.4866 29.7629 97.6704C29.8697 97.7476 29.9706 97.8425 30.0595 97.9433C30.1485 98.0501 30.2256 98.1628 30.2909 98.2873C30.3561 98.4119 30.3976 98.5424 30.4214 98.6848C30.4451 98.8212 30.4451 98.9636 30.4214 99.1059L30.4332 99.1178L30.8307 98.578L31.3586 98.9636L29.1401 101.977ZM27.4377 98.5128C27.319 98.6729 27.236 98.8449 27.1945 99.0229C27.153 99.2008 27.147 99.3788 27.1708 99.5567C27.1945 99.7288 27.2538 99.9008 27.3487 100.055C27.4436 100.215 27.5622 100.346 27.7165 100.458C27.8944 100.589 28.0783 100.678 28.2622 100.713C28.4461 100.755 28.624 100.755 28.802 100.719C28.974 100.684 29.1401 100.619 29.2884 100.518C29.4367 100.417 29.5672 100.292 29.6799 100.138C29.8045 99.966 29.8934 99.794 29.9409 99.6101C29.9884 99.4263 30.0061 99.2483 29.9824 99.0763C29.9587 98.8983 29.8994 98.7322 29.7985 98.5721C29.7036 98.4119 29.5672 98.2755 29.4011 98.1509C29.235 98.0263 29.063 97.9492 28.8791 97.9077C28.6952 97.8662 28.5173 97.8662 28.3452 97.9018C28.1732 97.9374 28.0071 98.0026 27.847 98.1035C27.6987 98.2162 27.5622 98.3526 27.4377 98.5128Z" fill="#293C5E"/>
<path d="M33.8559 104.219C33.5 104.362 33.1738 104.409 32.8712 104.373C32.5687 104.338 32.2603 104.225 31.9459 104.035C31.6849 103.881 31.4713 103.691 31.3171 103.478C31.1629 103.258 31.0561 103.027 31.0027 102.784C30.9493 102.541 30.9493 102.285 30.9968 102.024C31.0442 101.763 31.1392 101.508 31.2875 101.265C31.4417 101.004 31.6256 100.791 31.8391 100.625C32.0527 100.458 32.284 100.34 32.5272 100.275C32.7704 100.209 33.0255 100.192 33.2865 100.233C33.5475 100.269 33.8025 100.364 34.0517 100.512C34.2889 100.648 34.4788 100.814 34.6271 101.01C34.7754 101.206 34.8762 101.419 34.9296 101.657C34.983 101.894 34.983 102.143 34.9296 102.404C34.8762 102.665 34.7694 102.938 34.6093 103.217L34.5025 103.395L31.7798 101.793C31.7027 101.941 31.6612 102.102 31.6434 102.268C31.6256 102.434 31.6374 102.594 31.673 102.754C31.7086 102.908 31.7798 103.051 31.8747 103.187C31.9696 103.324 32.0942 103.43 32.2484 103.525C32.4916 103.668 32.7229 103.745 32.9424 103.762C33.1619 103.774 33.3873 103.739 33.6186 103.65L33.8559 104.219ZM34.1822 102.558C34.3423 102.262 34.3839 101.977 34.3067 101.704C34.2296 101.425 34.0339 101.194 33.7254 101.01C33.411 100.826 33.1085 100.767 32.8179 100.826C32.5272 100.886 32.2721 101.046 32.0645 101.313L34.1822 102.558Z" fill="#293C5E"/>
<path d="M36.1989 102.879C36.276 102.719 36.3412 102.564 36.3946 102.416C36.448 102.268 36.5073 102.137 36.5607 102.025L37.1183 102.286C37.0768 102.381 37.0293 102.481 36.9937 102.576C36.9522 102.677 36.9107 102.772 36.8632 102.873L36.881 102.879C36.9581 102.814 37.059 102.754 37.1658 102.707C37.2785 102.659 37.3971 102.63 37.5276 102.612C37.6581 102.594 37.7945 102.6 37.9369 102.618C38.0793 102.636 38.2275 102.683 38.3699 102.748C38.6013 102.855 38.7851 102.986 38.9216 103.134C39.058 103.282 39.1529 103.448 39.2063 103.626C39.2597 103.804 39.2715 103.994 39.2419 104.196C39.2122 104.397 39.147 104.605 39.0521 104.819L38.0377 107.007L37.4446 106.735L38.4292 104.605C38.5657 104.308 38.6131 104.041 38.5597 103.81C38.5063 103.579 38.3403 103.395 38.0674 103.27C37.8776 103.181 37.6937 103.14 37.5276 103.14C37.3556 103.14 37.2013 103.181 37.059 103.264C36.9166 103.347 36.7802 103.46 36.6616 103.608C36.5429 103.757 36.4361 103.929 36.3412 104.13L35.5404 105.857L34.9473 105.584L36.1989 102.879Z" fill="#293C5E"/>
<path d="M42.7417 105.21L41.6621 104.806L40.9859 106.639C40.9444 106.758 40.9029 106.871 40.8732 106.977C40.8376 107.084 40.8258 107.179 40.8376 107.268C40.8435 107.357 40.8791 107.44 40.9385 107.511C40.9978 107.582 41.0927 107.642 41.2291 107.695C41.3181 107.725 41.413 107.749 41.5138 107.766C41.6147 107.778 41.7155 107.784 41.8164 107.772L41.6325 108.336C41.5079 108.342 41.3833 108.336 41.2469 108.306C41.1105 108.276 40.9859 108.247 40.8732 108.205C40.6537 108.122 40.4876 108.033 40.3809 107.927C40.2741 107.82 40.197 107.701 40.1673 107.571C40.1317 107.44 40.1317 107.292 40.1673 107.132C40.2029 106.972 40.2504 106.794 40.3215 106.604L41.063 104.587L40.2622 104.29L40.452 103.774L41.2528 104.071L41.6384 103.027L42.2494 103.252L41.8638 104.296L42.9434 104.694L42.7417 105.21Z" fill="#293C5E"/>
<path d="M43.8217 104.967L44.4446 105.162L43.2879 108.893L42.665 108.704L43.8217 104.967ZM44.1361 103.46C44.1717 103.335 44.2488 103.246 44.3675 103.181C44.4861 103.116 44.6047 103.104 44.7352 103.146C44.8657 103.187 44.9547 103.264 45.014 103.383C45.0733 103.501 45.0852 103.62 45.0496 103.745C45.0081 103.875 44.931 103.976 44.8183 104.029C44.7056 104.089 44.5869 104.095 44.4505 104.059C44.32 104.018 44.2192 103.94 44.1658 103.828C44.1005 103.715 44.0946 103.596 44.1361 103.46Z" fill="#293C5E"/>
<path d="M45.5415 106.467C45.5831 106.295 45.6127 106.129 45.6424 105.975C45.6661 105.821 45.6958 105.679 45.7254 105.554L46.3245 105.696C46.3008 105.797 46.2771 105.904 46.2593 106.011C46.2415 106.117 46.2178 106.218 46.194 106.331L46.2118 106.337C46.2771 106.254 46.3601 106.177 46.455 106.112C46.5559 106.04 46.6626 105.987 46.7872 105.945C46.9118 105.904 47.0482 105.88 47.1906 105.868C47.3329 105.862 47.4872 105.874 47.6414 105.91C47.8905 105.969 48.0981 106.058 48.2642 106.177C48.4244 106.295 48.5549 106.438 48.6439 106.598C48.7328 106.764 48.7803 106.948 48.7922 107.15C48.804 107.357 48.7803 107.571 48.7328 107.802L48.1812 110.151L47.5465 110.003L48.0803 107.719C48.1575 107.399 48.1456 107.132 48.0447 106.912C47.9498 106.693 47.7482 106.551 47.4516 106.479C47.244 106.432 47.0601 106.426 46.894 106.462C46.7279 106.497 46.5796 106.568 46.455 106.675C46.3305 106.782 46.2237 106.918 46.1347 107.09C46.0457 107.256 45.9805 107.452 45.9271 107.666L45.4941 109.516L44.8594 109.368L45.5415 106.467Z" fill="#293C5E"/>
<path d="M50.2693 107.066C50.4947 106.888 50.7498 106.77 51.0404 106.71C51.3251 106.651 51.6099 106.639 51.8946 106.681C52.47 106.758 52.8615 106.948 53.081 107.256C53.3004 107.559 53.3716 107.992 53.2945 108.543L53.0691 110.204C53.0513 110.317 53.0454 110.43 53.0394 110.548C53.0335 110.667 53.0335 110.78 53.0335 110.881L52.4107 110.798C52.3988 110.709 52.4047 110.608 52.4166 110.501C52.4285 110.394 52.4403 110.299 52.4522 110.216H52.4344C52.2802 110.4 52.0903 110.537 51.859 110.637C51.6277 110.732 51.3667 110.762 51.0701 110.72C50.8684 110.691 50.6904 110.643 50.5243 110.572C50.3583 110.501 50.2159 110.406 50.0973 110.287C49.9786 110.175 49.8956 110.038 49.8363 109.884C49.7769 109.73 49.7651 109.558 49.7888 109.374C49.8303 109.054 49.949 108.816 50.1388 108.656C50.3286 108.496 50.554 108.389 50.8091 108.336C51.0701 108.282 51.337 108.265 51.6277 108.276C51.9124 108.294 52.1793 108.318 52.4166 108.348L52.6657 108.383L52.6835 108.265C52.7191 107.986 52.6657 107.76 52.5174 107.594C52.3691 107.428 52.1437 107.321 51.8412 107.28C51.6336 107.25 51.42 107.256 51.2124 107.298C50.9989 107.339 50.8091 107.422 50.637 107.541L50.2693 107.066ZM51.9361 108.84C51.5209 108.781 51.1887 108.798 50.9277 108.882C50.6667 108.965 50.5184 109.137 50.4828 109.404C50.4472 109.647 50.5065 109.831 50.6548 109.955C50.8031 110.08 50.9989 110.157 51.2421 110.192C51.4319 110.216 51.598 110.21 51.7463 110.163C51.8946 110.121 52.0251 110.05 52.1319 109.961C52.2386 109.866 52.3276 109.753 52.3988 109.623C52.47 109.487 52.5174 109.344 52.5412 109.184L52.5767 108.935L51.9361 108.84Z" fill="#293C5E"/>
<path d="M60.4728 110.43H60.455C60.3364 110.655 60.1466 110.845 59.8797 110.999C59.6187 111.153 59.3102 111.236 58.9602 111.242C58.6874 111.248 58.4323 111.195 58.1891 111.1C57.9459 110.999 57.7383 110.857 57.5603 110.679C57.3824 110.495 57.24 110.281 57.1392 110.032C57.0383 109.783 56.9849 109.51 56.979 109.214C56.9731 108.917 57.0205 108.644 57.1214 108.395C57.2163 108.146 57.3527 107.927 57.5307 107.737C57.7086 107.553 57.9222 107.405 58.1713 107.298C58.4204 107.191 58.7052 107.138 59.0077 107.132C59.2924 107.126 59.5534 107.185 59.7907 107.298C60.028 107.41 60.2356 107.571 60.4195 107.784H60.4372L60.4017 104.812L61.0542 104.806L61.1313 111.124L60.4788 111.13L60.4728 110.43ZM60.455 109.172C60.455 108.965 60.4195 108.775 60.3542 108.603C60.289 108.431 60.194 108.277 60.0695 108.146C59.9449 108.016 59.7966 107.915 59.6246 107.843C59.4526 107.772 59.2628 107.737 59.0492 107.737C58.8357 107.737 58.6458 107.778 58.4798 107.855C58.3077 107.932 58.1654 108.039 58.0467 108.17C57.9281 108.3 57.8332 108.454 57.7739 108.632C57.7146 108.81 57.679 109 57.6849 109.208C57.6849 109.415 57.7205 109.605 57.7857 109.777C57.851 109.949 57.9459 110.103 58.0705 110.234C58.195 110.364 58.3433 110.465 58.5153 110.537C58.6874 110.608 58.8772 110.643 59.0907 110.643C59.3043 110.637 59.4941 110.602 59.6602 110.525C59.8263 110.448 59.9746 110.341 60.0932 110.21C60.2118 110.08 60.3067 109.926 60.3661 109.748C60.4313 109.57 60.461 109.374 60.455 109.172Z" fill="#293C5E"/>
<path d="M66.2385 109.89C66.0427 110.217 65.8114 110.454 65.5445 110.602C65.2835 110.75 64.9691 110.851 64.6013 110.893C64.2988 110.928 64.02 110.905 63.759 110.828C63.5039 110.75 63.2785 110.626 63.0887 110.46C62.8989 110.3 62.7447 110.098 62.626 109.861C62.5074 109.623 62.4303 109.362 62.4006 109.078C62.365 108.781 62.3828 108.496 62.454 108.235C62.5252 107.974 62.6379 107.743 62.7921 107.541C62.9463 107.34 63.1421 107.18 63.3734 107.049C63.6048 106.924 63.8658 106.841 64.1505 106.806C64.4234 106.776 64.6784 106.794 64.9098 106.853C65.147 106.919 65.3546 107.031 65.5385 107.185C65.7224 107.34 65.8707 107.541 65.9893 107.779C66.108 108.022 66.1851 108.301 66.2207 108.621L66.2444 108.829L63.1065 109.19C63.1362 109.357 63.1955 109.511 63.2844 109.653C63.3734 109.795 63.4743 109.92 63.5988 110.021C63.7234 110.122 63.8658 110.199 64.02 110.246C64.1742 110.294 64.3462 110.312 64.5183 110.288C64.803 110.252 65.0343 110.181 65.2123 110.056C65.3962 109.938 65.5504 109.766 65.6868 109.558L66.2385 109.89ZM65.5029 108.372C65.4555 108.04 65.3131 107.785 65.0877 107.613C64.8623 107.435 64.5657 107.369 64.2039 107.411C63.842 107.452 63.5632 107.583 63.3675 107.808C63.1717 108.034 63.065 108.313 63.059 108.651L65.5029 108.372Z" fill="#293C5E"/>
<path d="M75.3967 108.016C75.1239 108.289 74.8154 108.526 74.4773 108.716C74.1392 108.905 73.7892 109.054 73.4155 109.161C72.9706 109.291 72.5435 109.333 72.1343 109.297C71.725 109.261 71.3453 109.149 71.0013 108.965C70.6572 108.781 70.3547 108.526 70.0997 108.2C69.8446 107.873 69.6548 107.494 69.5243 107.049C69.3938 106.598 69.3582 106.171 69.4116 105.756C69.4649 105.346 69.5954 104.967 69.7971 104.629C69.9988 104.29 70.2657 103.994 70.592 103.745C70.9182 103.496 71.2979 103.306 71.725 103.181C72.0987 103.074 72.4783 103.027 72.852 103.039C73.2316 103.051 73.5935 103.158 73.9435 103.353L73.5935 104.029C73.3384 103.875 73.0596 103.78 72.7512 103.751C72.4427 103.715 72.1461 103.745 71.8555 103.822C71.5292 103.917 71.2445 104.059 71.0013 104.261C70.7581 104.457 70.5623 104.688 70.414 104.961C70.2657 105.228 70.1768 105.524 70.1471 105.845C70.1174 106.165 70.1471 106.497 70.2479 106.841C70.3429 107.179 70.4912 107.476 70.6928 107.731C70.8886 107.986 71.1259 108.194 71.3869 108.342C71.6538 108.496 71.9504 108.585 72.2707 108.621C72.591 108.656 72.9291 108.621 73.2791 108.526C73.5104 108.461 73.7418 108.36 73.979 108.235C74.2163 108.111 74.4239 107.956 74.6019 107.79L74.1036 106.046L72.7927 106.42L72.6147 105.791L74.596 105.222L75.3967 108.016Z" fill="#293C5E"/>
<path d="M75.9541 104.587C76.0609 104.32 76.221 104.089 76.4405 103.893C76.66 103.697 76.8973 103.543 77.1583 103.436C77.6921 103.217 78.1311 103.181 78.4751 103.336C78.8132 103.49 79.092 103.822 79.3056 104.338L79.9521 105.886C79.9937 105.987 80.047 106.094 80.1004 106.201C80.1538 106.307 80.2131 106.402 80.2665 106.491L79.6852 106.735C79.6318 106.663 79.5784 106.574 79.5369 106.474C79.4954 106.373 79.4539 106.284 79.4242 106.207L79.4064 106.213C79.3649 106.45 79.27 106.663 79.1217 106.865C78.9734 107.067 78.7598 107.221 78.481 107.34C78.2972 107.417 78.1133 107.464 77.9294 107.488C77.7455 107.512 77.5794 107.5 77.4193 107.458C77.2591 107.417 77.1167 107.345 76.9922 107.245C76.8617 107.144 76.7668 107.001 76.6896 106.829C76.5651 106.533 76.5473 106.266 76.6303 106.029C76.7134 105.797 76.8557 105.59 77.0456 105.412C77.2413 105.234 77.4667 105.08 77.7218 104.949C77.9768 104.819 78.2141 104.706 78.4395 104.617L78.6709 104.522L78.6234 104.415C78.5166 104.154 78.3506 103.988 78.1429 103.917C77.9294 103.846 77.6803 103.875 77.4015 103.988C77.2057 104.071 77.0278 104.178 76.8676 104.32C76.7074 104.463 76.5829 104.629 76.4939 104.824L75.9541 104.587ZM78.2794 105.275C77.8938 105.435 77.6091 105.619 77.4311 105.821C77.2472 106.023 77.2116 106.248 77.3125 106.491C77.4074 106.717 77.5498 106.847 77.7396 106.877C77.9294 106.907 78.137 106.877 78.3683 106.782C78.5404 106.711 78.6827 106.616 78.7895 106.503C78.8963 106.39 78.9734 106.266 79.0208 106.129C79.0683 105.993 79.0861 105.851 79.0802 105.702C79.0742 105.554 79.0386 105.4 78.9853 105.252L78.8903 105.02L78.2794 105.275Z" fill="#293C5E"/>
<path d="M81.2632 104.86C81.453 104.943 81.6369 104.996 81.8149 105.008C81.9928 105.02 82.1886 104.972 82.3962 104.866C82.4852 104.818 82.5682 104.765 82.6512 104.694C82.7343 104.628 82.7995 104.551 82.847 104.468C82.9004 104.385 82.93 104.296 82.9419 104.207C82.9538 104.118 82.93 104.023 82.8826 103.934C82.8351 103.839 82.7758 103.774 82.6987 103.739C82.6275 103.703 82.5445 103.679 82.4555 103.673C82.3665 103.667 82.2657 103.673 82.1648 103.697C82.064 103.721 81.9572 103.745 81.8564 103.774C81.6725 103.828 81.5005 103.863 81.3285 103.899C81.1564 103.928 80.9963 103.94 80.848 103.928C80.6997 103.917 80.5632 103.869 80.4387 103.786C80.3141 103.709 80.2014 103.578 80.1124 103.4C80.0235 103.234 79.9879 103.062 79.9938 102.896C79.9997 102.73 80.0472 102.57 80.1243 102.422C80.2073 102.273 80.3082 102.137 80.4387 102.012C80.5692 101.888 80.7175 101.787 80.8776 101.698C81.1268 101.568 81.3818 101.502 81.6428 101.49C81.9038 101.479 82.153 101.556 82.3843 101.716L82.064 102.285C81.9276 102.202 81.7793 102.149 81.6132 102.137C81.453 102.125 81.2869 102.161 81.1149 102.25C81.0378 102.291 80.9607 102.345 80.8895 102.404C80.8183 102.469 80.759 102.534 80.7175 102.606C80.676 102.677 80.6463 102.754 80.6344 102.843C80.6226 102.926 80.6404 103.009 80.6819 103.086C80.7234 103.157 80.7768 103.211 80.848 103.24C80.9192 103.27 81.0081 103.282 81.109 103.276C81.2098 103.276 81.3225 103.258 81.4471 103.234C81.5717 103.211 81.6903 103.175 81.8149 103.139C81.981 103.092 82.147 103.051 82.3131 103.027C82.4733 103.003 82.6275 103.003 82.7758 103.027C82.9182 103.051 83.0546 103.11 83.1732 103.199C83.2919 103.288 83.3986 103.418 83.4876 103.59C83.5885 103.786 83.6359 103.976 83.63 104.154C83.6241 104.332 83.5766 104.498 83.4876 104.652C83.3986 104.806 83.2859 104.949 83.1377 105.073C82.9953 105.198 82.8351 105.305 82.6631 105.394C82.3665 105.548 82.0877 105.631 81.8267 105.655C81.5657 105.672 81.281 105.607 80.9844 105.447L81.2632 104.86Z" fill="#293C5E"/>
<path d="M85.1846 99.9782L84.1999 100.577L85.2143 102.25C85.2795 102.363 85.3448 102.458 85.4041 102.547C85.4634 102.636 85.5346 102.707 85.6058 102.754C85.6829 102.802 85.7659 102.825 85.8549 102.825C85.9439 102.825 86.0506 102.79 86.1752 102.713C86.2583 102.665 86.3354 102.606 86.4066 102.535C86.4777 102.464 86.543 102.386 86.5964 102.303L86.9286 102.796C86.8574 102.897 86.7743 102.992 86.6676 103.081C86.5608 103.169 86.4599 103.247 86.3532 103.312C86.1515 103.43 85.9795 103.502 85.8252 103.525C85.6769 103.543 85.5346 103.525 85.41 103.472C85.2854 103.419 85.1727 103.324 85.066 103.199C84.9592 103.075 84.8524 102.92 84.7516 102.754L83.6364 100.921L82.9068 101.366L82.6221 100.898L83.3517 100.453L82.7763 99.5036L83.3339 99.1655L83.9093 100.115L84.8939 99.5155L85.1846 99.9782Z" fill="#293C5E"/>
<path d="M86.1513 99.7822C86.0505 99.6339 85.9497 99.5034 85.8488 99.3789C85.7539 99.2602 85.6649 99.1416 85.5938 99.0407L86.1039 98.6908C86.1632 98.7797 86.2284 98.8628 86.2937 98.9458C86.3589 99.0289 86.4242 99.1178 86.4894 99.2068L86.5013 99.195C86.4835 99.0941 86.4835 98.9814 86.4954 98.8628C86.5132 98.7441 86.5428 98.6255 86.5962 98.5009C86.6496 98.3823 86.7208 98.2637 86.8098 98.151C86.8987 98.0383 87.0115 97.9315 87.142 97.8425C87.1775 97.8188 87.2191 97.7951 87.2547 97.7713C87.2962 97.7476 87.3377 97.7357 87.3852 97.7239L87.7292 98.2874C87.6165 98.323 87.5156 98.3764 87.4148 98.4476C87.0826 98.6789 86.9225 98.9518 86.9225 99.2661C86.9225 99.5805 87.053 99.9246 87.308 100.298L88.3995 101.858L87.8656 102.232L86.1513 99.7822Z" fill="#293C5E"/>
<path d="M89.046 99.023C88.8502 98.7857 88.7138 98.5365 88.6367 98.2756C88.5596 98.0146 88.5359 97.7535 88.5596 97.4985C88.5892 97.2434 88.6664 96.9943 88.8028 96.7511C88.9392 96.5138 89.1231 96.2943 89.3544 96.1045C89.5858 95.9147 89.8349 95.7783 90.0959 95.6893C90.3569 95.6062 90.6179 95.5706 90.873 95.5944C91.1281 95.6181 91.3772 95.6893 91.6204 95.8198C91.8636 95.9444 92.0771 96.1282 92.2729 96.3655C92.4686 96.6028 92.6051 96.8519 92.6822 97.1129C92.7593 97.3739 92.783 97.6349 92.7593 97.89C92.7296 98.145 92.6525 98.3942 92.5161 98.6374C92.3797 98.8806 92.1958 99.0941 91.9644 99.284C91.7331 99.4738 91.484 99.6161 91.223 99.6992C90.962 99.7822 90.701 99.8178 90.4459 99.7941C90.1908 99.7704 89.9417 99.6992 89.6985 99.5687C89.4612 99.4382 89.2417 99.2602 89.046 99.023ZM89.5917 98.5721C89.7222 98.7323 89.8705 98.8569 90.0307 98.9518C90.1908 99.0467 90.3629 99.106 90.5408 99.1297C90.7188 99.1534 90.8967 99.1416 91.0747 99.0882C91.2526 99.0407 91.4246 98.9458 91.5907 98.8094C91.7568 98.673 91.8755 98.5247 91.9644 98.3586C92.0475 98.1925 92.0949 98.0205 92.1068 97.8425C92.1187 97.6646 92.0949 97.4866 92.0297 97.3087C91.9704 97.1307 91.8695 96.9646 91.739 96.8045C91.6085 96.6443 91.4602 96.5197 91.3001 96.4248C91.1399 96.3299 90.9679 96.2706 90.7899 96.2469C90.612 96.2231 90.434 96.235 90.2561 96.2884C90.0781 96.3358 89.9061 96.4308 89.74 96.5672C89.5799 96.7036 89.4553 96.8519 89.3722 97.018C89.2892 97.1841 89.2417 97.3561 89.2299 97.5341C89.218 97.712 89.2417 97.89 89.307 98.0679C89.3604 98.2518 89.4612 98.4179 89.5917 98.5721Z" fill="#293C5E"/>
<path d="M96.5795 93.8567C96.627 94.2363 96.5973 94.5626 96.4846 94.8473C96.3719 95.132 96.188 95.399 95.933 95.6599C95.7194 95.8794 95.4822 96.0337 95.233 96.1345C94.9839 96.2294 94.7348 96.2769 94.4856 96.2709C94.2365 96.2591 93.9873 96.1997 93.7441 96.093C93.5009 95.9803 93.2815 95.826 93.0798 95.6244C92.8662 95.4108 92.7061 95.1795 92.5934 94.9303C92.4866 94.6812 92.4273 94.4321 92.4213 94.177C92.4154 93.9219 92.4688 93.6728 92.5696 93.4296C92.6705 93.1864 92.8247 92.961 93.0264 92.7534C93.2162 92.5576 93.4298 92.4153 93.6552 92.3144C93.8806 92.2195 94.1119 92.1721 94.3551 92.178C94.5983 92.1839 94.8356 92.2432 95.0788 92.3619C95.322 92.4746 95.5593 92.6466 95.7847 92.8779L95.933 93.0262L93.7085 95.2684C93.8331 95.3812 93.9755 95.4642 94.1356 95.5176C94.2958 95.5769 94.45 95.6066 94.6102 95.6066C94.7703 95.6066 94.9246 95.5769 95.0788 95.5176C95.233 95.4583 95.3695 95.3634 95.494 95.2388C95.6957 95.0371 95.8262 94.8295 95.8915 94.6219C95.9567 94.4143 95.9745 94.1829 95.9448 93.9338L96.5795 93.8567ZM95.0551 93.1271C94.8119 92.9017 94.5449 92.789 94.2543 92.7949C93.9636 92.8008 93.6967 92.9313 93.4416 93.1864C93.1865 93.4415 93.0501 93.7203 93.0383 94.0228C93.0264 94.3194 93.1213 94.6041 93.323 94.871L95.0551 93.1271Z" fill="#293C5E"/>
<path d="M95.8675 91.2523C95.731 91.1396 95.5946 91.0387 95.47 90.9498C95.3395 90.8608 95.2268 90.7777 95.126 90.6947L95.5175 90.2142C95.6005 90.2795 95.6836 90.3447 95.7666 90.41C95.8497 90.4752 95.9386 90.5405 96.0276 90.6117L96.0395 90.5998C95.992 90.5049 95.9624 90.3981 95.9446 90.2795C95.9268 90.1608 95.9268 90.0363 95.9386 89.9058C95.9564 89.7753 95.992 89.6448 96.0454 89.5083C96.0988 89.3719 96.1818 89.2414 96.2827 89.1168C96.4428 88.9211 96.6149 88.7728 96.7928 88.672C96.9708 88.577 97.1547 88.5237 97.3385 88.5177C97.5224 88.5118 97.7122 88.5474 97.9021 88.6245C98.0919 88.7016 98.2817 88.8143 98.4597 88.9626L100.334 90.4812L99.9248 90.9854L98.0978 89.5083C97.8427 89.3007 97.5936 89.194 97.3563 89.188C97.1191 89.1821 96.9055 89.2948 96.7098 89.5321C96.5733 89.6982 96.4903 89.8583 96.4488 90.0244C96.4073 90.1905 96.4072 90.3507 96.4547 90.5108C96.4962 90.671 96.5733 90.8252 96.686 90.9794C96.7987 91.1337 96.9411 91.276 97.1131 91.4184L98.5902 92.6166L98.1809 93.1208L95.8675 91.2523Z" fill="#293C5E"/>
<path d="M99.7461 85.4866L99.0877 86.4357L100.695 87.5449C100.802 87.6161 100.897 87.6813 100.992 87.7407C101.087 87.8 101.176 87.8356 101.265 87.8474C101.354 87.8593 101.437 87.8474 101.52 87.8118C101.603 87.7763 101.686 87.6991 101.769 87.5746C101.822 87.4975 101.87 87.4085 101.905 87.3136C101.947 87.2187 101.971 87.1238 101.982 87.0229L102.487 87.3373C102.463 87.4559 102.421 87.5805 102.362 87.7051C102.303 87.8296 102.237 87.9423 102.166 88.0432C102.03 88.233 101.899 88.3694 101.775 88.4525C101.644 88.5296 101.514 88.5711 101.377 88.5711C101.241 88.5711 101.099 88.5355 100.95 88.4643C100.802 88.3932 100.642 88.2982 100.476 88.1855L98.7081 86.9636L98.2217 87.6636L97.7708 87.3492L98.2573 86.6492L97.3438 86.0145L97.7115 85.4806L98.625 86.1154L99.2835 85.1663L99.7461 85.4866Z" fill="#293C5E"/>
<path d="M104.302 83.0071C104.444 83.3631 104.498 83.6893 104.462 83.9859C104.427 84.2884 104.314 84.5969 104.13 84.9172C103.976 85.1841 103.792 85.3917 103.573 85.5519C103.353 85.712 103.122 85.8129 102.878 85.8722C102.635 85.9256 102.38 85.9315 102.119 85.8841C101.858 85.8366 101.603 85.7417 101.354 85.5993C101.093 85.451 100.879 85.2672 100.713 85.0536C100.541 84.8401 100.429 84.6087 100.357 84.3655C100.292 84.1223 100.274 83.8673 100.31 83.6063C100.346 83.3453 100.435 83.0902 100.583 82.8351C100.719 82.5979 100.885 82.408 101.081 82.2538C101.277 82.1055 101.49 81.9987 101.722 81.9454C101.953 81.892 102.202 81.892 102.469 81.9394C102.73 81.9869 103.003 82.0937 103.282 82.2597L103.46 82.3665L101.876 85.1011C102.024 85.1723 102.184 85.2197 102.351 85.2375C102.517 85.2553 102.677 85.2434 102.831 85.2019C102.985 85.1604 103.128 85.0951 103.264 85.0002C103.395 84.9053 103.507 84.7808 103.596 84.6265C103.739 84.3833 103.816 84.1461 103.828 83.9266C103.839 83.7071 103.798 83.4817 103.709 83.2504L104.302 83.0071ZM102.641 82.6928C102.345 82.5326 102.06 82.497 101.781 82.5741C101.502 82.6512 101.277 82.847 101.093 83.1614C100.909 83.4758 100.85 83.7783 100.915 84.0689C100.974 84.3596 101.14 84.6147 101.407 84.8163L102.641 82.6928Z" fill="#293C5E"/>
<path d="M102.921 80.6939C102.76 80.6168 102.606 80.5515 102.458 80.4922C102.31 80.4329 102.185 80.3795 102.066 80.3261L102.333 79.7685C102.428 79.816 102.523 79.8575 102.624 79.899C102.725 79.9405 102.82 79.9821 102.921 80.0295L102.927 80.0117C102.861 79.9287 102.802 79.8338 102.76 79.7211C102.713 79.6084 102.683 79.4897 102.671 79.3592C102.654 79.2287 102.66 79.0923 102.683 78.9499C102.707 78.8076 102.754 78.6593 102.82 78.5169C102.838 78.4754 102.861 78.4398 102.885 78.3983C102.909 78.3627 102.938 78.3271 102.974 78.2915L103.549 78.6118C103.472 78.6949 103.407 78.7957 103.354 78.9084C103.182 79.2702 103.17 79.5906 103.33 79.8634C103.484 80.1363 103.769 80.3736 104.172 80.5693L105.892 81.3879L105.614 81.9751L102.921 80.6939Z" fill="#293C5E"/>
<path d="M105.062 78.5938C104.777 78.487 104.534 78.3388 104.339 78.1489C104.143 77.9591 103.994 77.7515 103.888 77.5142C103.787 77.277 103.733 77.0219 103.728 76.749C103.728 76.4762 103.775 76.1974 103.882 75.9126C103.989 75.6338 104.137 75.3906 104.321 75.183C104.505 74.9814 104.712 74.8212 104.949 74.7144C105.187 74.6077 105.436 74.5483 105.709 74.5424C105.982 74.5305 106.26 74.5839 106.545 74.6907C106.83 74.7975 107.073 74.9517 107.269 75.1356C107.465 75.3254 107.613 75.5389 107.72 75.7703C107.826 76.0076 107.88 76.2626 107.88 76.5355C107.88 76.8083 107.832 77.0871 107.726 77.3719C107.619 77.6507 107.471 77.8939 107.287 78.1015C107.103 78.3032 106.889 78.4574 106.658 78.5701C106.421 78.6769 106.171 78.7362 105.899 78.7421C105.626 78.754 105.347 78.7006 105.062 78.5938ZM105.311 77.9413C105.507 78.0125 105.691 78.054 105.881 78.054C106.071 78.054 106.243 78.0244 106.409 77.9591C106.575 77.8879 106.723 77.793 106.854 77.6566C106.984 77.5261 107.085 77.36 107.162 77.1643C107.239 76.9685 107.269 76.7728 107.263 76.5889C107.251 76.405 107.21 76.227 107.132 76.0669C107.055 75.9067 106.943 75.7644 106.8 75.6398C106.658 75.5152 106.492 75.4203 106.302 75.3432C106.112 75.272 105.922 75.2305 105.732 75.2305C105.549 75.2305 105.371 75.2601 105.205 75.3313C105.038 75.3966 104.89 75.4974 104.76 75.6279C104.629 75.7584 104.528 75.9245 104.451 76.1203C104.374 76.316 104.344 76.5118 104.35 76.6956C104.362 76.8795 104.404 77.0575 104.481 77.2176C104.558 77.3778 104.671 77.5202 104.813 77.6447C104.955 77.7693 105.122 77.8642 105.311 77.9413Z" fill="#293C5E"/>
<path d="M102.725 72.1936L102.908 71.5708L108.959 73.38L108.775 74.0028L102.725 72.1936Z" fill="#293C5E"/>
<path d="M107.482 71.5709C107.186 71.5057 106.925 71.393 106.699 71.2387C106.474 71.0786 106.296 70.8947 106.159 70.6752C106.023 70.4558 105.934 70.2125 105.887 69.9397C105.845 69.6668 105.857 69.3821 105.922 69.0914C105.987 68.7948 106.094 68.5338 106.248 68.3084C106.403 68.0771 106.586 67.8932 106.8 67.7568C107.014 67.6144 107.257 67.5195 107.524 67.472C107.791 67.4246 108.075 67.4305 108.372 67.4958C108.669 67.561 108.93 67.6737 109.155 67.828C109.374 67.9822 109.558 68.172 109.695 68.3915C109.831 68.611 109.92 68.8542 109.968 69.127C110.009 69.3999 109.997 69.6787 109.932 69.9753C109.867 70.2719 109.76 70.5329 109.606 70.7583C109.452 70.9896 109.268 71.1735 109.054 71.3099C108.841 71.4523 108.597 71.5472 108.33 71.5946C108.063 71.6421 107.785 71.6362 107.482 71.5709ZM107.636 70.8828C107.838 70.9244 108.028 70.9362 108.218 70.9125C108.402 70.8888 108.574 70.8295 108.728 70.7405C108.882 70.6515 109.013 70.5269 109.125 70.3786C109.238 70.2303 109.315 70.0524 109.357 69.8448C109.404 69.6372 109.404 69.4414 109.368 69.2635C109.333 69.0796 109.262 68.9194 109.161 68.7711C109.06 68.6228 108.93 68.4982 108.775 68.3974C108.615 68.2966 108.437 68.2254 108.236 68.1839C108.034 68.1364 107.838 68.1305 107.654 68.1542C107.47 68.1779 107.298 68.2373 107.144 68.3262C106.99 68.4152 106.859 68.5398 106.747 68.6881C106.64 68.8364 106.557 69.0143 106.515 69.2219C106.468 69.4295 106.468 69.6253 106.503 69.8033C106.539 69.9871 106.61 70.1473 106.711 70.2956C106.812 70.4439 106.942 70.5684 107.097 70.6693C107.251 70.7701 107.435 70.8413 107.636 70.8828Z" fill="#293C5E"/>
<path d="M110.786 62.507C111.492 62.5841 112.014 62.8273 112.34 63.2307C112.666 63.634 112.791 64.1797 112.714 64.8678C112.672 65.2475 112.577 65.5856 112.435 65.8822C112.293 66.1788 112.067 66.4457 111.765 66.6948L111.284 66.1728C111.527 65.9949 111.717 65.7932 111.86 65.5796C111.996 65.3602 112.085 65.1051 112.121 64.8085C112.15 64.5179 112.138 64.2747 112.073 64.0789C112.008 63.8772 111.907 63.7171 111.777 63.5866C111.64 63.462 111.48 63.3612 111.302 63.2959C111.118 63.2307 110.922 63.1891 110.721 63.1654L110.222 63.112V63.1298C110.454 63.3137 110.614 63.5332 110.703 63.7942C110.792 64.0552 110.822 64.3162 110.792 64.5772C110.756 64.8797 110.679 65.1585 110.549 65.3958C110.418 65.639 110.258 65.8406 110.062 66.0067C109.867 66.1669 109.641 66.2855 109.386 66.3626C109.131 66.4338 108.858 66.4576 108.573 66.422C108.259 66.3864 107.98 66.3033 107.737 66.1788C107.494 66.0483 107.292 65.8881 107.138 65.6864C106.984 65.4907 106.871 65.2534 106.806 64.9924C106.74 64.7255 106.723 64.4407 106.758 64.1323C106.77 64.0018 106.806 63.8713 106.847 63.7408C106.895 63.6103 106.954 63.4857 107.031 63.373C107.108 63.2544 107.203 63.1535 107.31 63.0646C107.417 62.9756 107.541 62.9044 107.672 62.851V62.8332L107.007 62.762L107.079 62.1155L110.786 62.507ZM108.639 65.7101C108.84 65.7339 109.024 65.7161 109.202 65.6627C109.38 65.6093 109.534 65.5263 109.677 65.4195C109.813 65.3068 109.932 65.1763 110.021 65.0161C110.11 64.856 110.169 64.684 110.187 64.5001C110.211 64.2806 110.193 64.0789 110.133 63.895C110.074 63.7171 109.985 63.5569 109.872 63.4264C109.754 63.29 109.617 63.1891 109.457 63.1061C109.297 63.029 109.119 62.9756 108.929 62.9578C108.716 62.9341 108.526 62.9459 108.342 62.9934C108.158 63.0408 107.998 63.1179 107.856 63.2247C107.713 63.3315 107.601 63.4679 107.512 63.634C107.423 63.8001 107.369 63.984 107.346 64.1857C107.322 64.3933 107.34 64.5831 107.393 64.7551C107.446 64.9331 107.535 65.0873 107.654 65.2237C107.773 65.3602 107.915 65.467 108.081 65.55C108.247 65.633 108.437 65.6864 108.639 65.7101Z" fill="#293C5E"/>
<path d="M105.003 60.0332L105.039 59.1138L106.195 60.3535L106.171 60.9467L105.003 60.0332ZM107.115 60.7272L107.138 60.0747L111.047 60.2171L111.024 60.8696L107.115 60.7272Z" fill="#293C5E"/>
<path d="M107.683 58.758C107.47 58.5622 107.31 58.3309 107.209 58.058C107.102 57.7851 107.049 57.5063 107.037 57.2216C107.019 56.6403 107.144 56.2192 107.411 55.9582C107.677 55.6912 108.087 55.5548 108.644 55.537L110.323 55.4895C110.436 55.4836 110.548 55.4777 110.667 55.4599C110.786 55.4421 110.898 55.4302 110.993 55.4065L111.011 56.0353C110.922 56.059 110.827 56.0768 110.715 56.0827C110.608 56.0887 110.507 56.0946 110.424 56.0946V56.1124C110.626 56.2369 110.798 56.403 110.934 56.6106C111.07 56.8242 111.142 57.0793 111.148 57.3759C111.153 57.5775 111.136 57.7673 111.088 57.9394C111.041 58.1173 110.976 58.2716 110.881 58.408C110.786 58.5385 110.667 58.6512 110.525 58.7342C110.382 58.8173 110.216 58.8588 110.026 58.8647C109.706 58.8766 109.445 58.7995 109.261 58.6393C109.071 58.4792 108.929 58.2775 108.834 58.0283C108.739 57.7851 108.674 57.5182 108.644 57.2335C108.615 56.9488 108.597 56.6818 108.585 56.4446L108.579 56.1954L108.46 56.2014C108.176 56.2073 107.962 56.3022 107.826 56.4742C107.683 56.6462 107.618 56.8894 107.63 57.192C107.636 57.4055 107.677 57.6072 107.755 57.8089C107.832 58.0106 107.944 58.1885 108.093 58.3368L107.683 58.758ZM109.16 56.8301C109.172 57.2454 109.243 57.5775 109.368 57.8148C109.493 58.058 109.688 58.1707 109.955 58.1648C110.198 58.1589 110.371 58.0699 110.471 57.9038C110.572 57.7377 110.614 57.5301 110.608 57.2869C110.602 57.0971 110.566 56.931 110.495 56.7945C110.43 56.6581 110.341 56.5395 110.228 56.4446C110.121 56.3556 109.997 56.2844 109.849 56.2369C109.706 56.1895 109.552 56.1658 109.392 56.1658L109.143 56.1717L109.16 56.8301Z" fill="#293C5E"/>
<path d="M42.2386 13.8305C42.5292 14.0678 42.8555 14.2042 43.2055 14.2458C43.5614 14.2873 43.8995 14.2576 44.2257 14.1508C44.4096 14.0915 44.5876 14.0025 44.7596 13.8898C44.9316 13.7712 45.0799 13.6288 45.1985 13.4687C45.3172 13.3026 45.4002 13.1246 45.4477 12.923C45.4951 12.7272 45.4833 12.5137 45.4121 12.2942C45.3112 11.9798 45.1392 11.7781 44.8901 11.6773C44.6409 11.5764 44.3503 11.5171 44.024 11.4993C43.6978 11.4815 43.3419 11.4756 42.9622 11.4875C42.5826 11.4934 42.2208 11.4519 41.8649 11.3629C41.5149 11.2739 41.1886 11.1078 40.892 10.8587C40.5955 10.6155 40.3641 10.2299 40.198 9.70199C40.1209 9.46472 40.0972 9.19779 40.115 8.9012C40.1328 8.60461 40.2158 8.30802 40.3701 8.01736C40.5183 7.72671 40.7438 7.45384 41.0463 7.19284C41.3429 6.93184 41.7403 6.73016 42.2267 6.57C42.6657 6.42764 43.1105 6.35646 43.5495 6.35053C43.9944 6.3446 44.4215 6.48103 44.8486 6.75389L44.2139 7.84534C44.0062 7.67332 43.763 7.56655 43.4664 7.51909C43.1758 7.47164 42.8673 7.49536 42.547 7.5962C42.2445 7.69111 42.0013 7.81568 41.8233 7.95804C41.6454 8.10041 41.5208 8.25463 41.4378 8.42072C41.3547 8.58681 41.3132 8.74698 41.3073 8.90713C41.3013 9.06729 41.3191 9.20966 41.3607 9.32829C41.4674 9.67234 41.6513 9.90367 41.9064 10.0223C42.1615 10.1409 42.4521 10.2121 42.7843 10.2359C43.1105 10.2596 43.4664 10.2596 43.8402 10.2418C44.2139 10.224 44.5757 10.2477 44.9197 10.3189C45.2638 10.3901 45.5782 10.5324 45.8688 10.746C46.1536 10.9595 46.373 11.3095 46.5332 11.7959C46.6578 12.1815 46.6933 12.5552 46.6459 12.917C46.5984 13.2789 46.4798 13.6051 46.2959 13.8958C46.112 14.1864 45.8688 14.4474 45.5604 14.6669C45.2519 14.8923 44.9079 15.0643 44.5164 15.1889C44.0003 15.355 43.4783 15.4202 42.9563 15.3847C42.4343 15.3491 41.9776 15.183 41.5801 14.8923L42.2386 13.8305Z" fill="#19397F"/>
<path d="M51.1541 4.79066L52.1862 4.66016L56.8664 12.6088L55.5377 12.7808L54.4284 10.8114L50.4245 11.3275L49.861 13.5104L48.5322 13.6824L51.1541 4.79066ZM53.8827 9.86235L51.8184 6.20243L51.7947 6.20836L50.6973 10.2716L53.8827 9.86235Z" fill="#19397F"/>
<path d="M66.3389 8.49798L65.9949 12.6621C65.7754 12.7748 65.5322 12.8638 65.2653 12.9409C64.9924 13.018 64.7136 13.0714 64.4289 13.1189C64.1382 13.1604 63.8476 13.19 63.5569 13.196C63.2663 13.2019 62.9875 13.196 62.7383 13.1782C62.0206 13.1189 61.3918 12.9468 60.852 12.6621C60.3122 12.3774 59.8614 12.0155 59.5114 11.5766C59.1615 11.1376 58.9064 10.6453 58.7462 10.0877C58.5861 9.53604 58.5327 8.96066 58.5801 8.36155C58.6335 7.73278 58.7878 7.15739 59.0547 6.63539C59.3157 6.1134 59.6597 5.66851 60.0809 5.30074C60.5021 4.93297 60.9885 4.66011 61.552 4.47622C62.1096 4.29233 62.7146 4.22708 63.3612 4.28047C64.1442 4.34572 64.767 4.49401 65.2475 4.73129C65.722 4.96856 66.1135 5.27108 66.422 5.63885L65.5382 6.44558C65.2178 6.08374 64.8679 5.81681 64.4882 5.65665C64.1086 5.49056 63.7052 5.39565 63.2781 5.36006C62.7917 5.31853 62.3468 5.37192 61.9435 5.52022C61.5401 5.66851 61.1842 5.88206 60.8817 6.16085C60.5792 6.43965 60.336 6.77776 60.1461 7.17519C59.9623 7.57262 59.8496 7.99971 59.814 8.46239C59.7724 8.94287 59.8199 9.38775 59.9563 9.81484C60.0928 10.236 60.2885 10.6156 60.5614 10.9419C60.8342 11.2681 61.1545 11.5351 61.5401 11.7367C61.9257 11.9384 62.3528 12.063 62.8214 12.0986C63.2247 12.1342 63.6162 12.1282 63.984 12.0808C64.3518 12.0333 64.6721 11.9503 64.9331 11.8317L65.1289 9.48266L63.2544 9.32843L63.3434 8.25478L66.3389 8.49798Z" fill="#19397F"/>
<path d="M71.0796 5.69824L76.3352 7.21678L76.0327 8.25485L71.8804 7.05069L71.1804 9.4768L75.048 10.5979L74.7455 11.63L70.8779 10.5149L70.1246 13.1249L74.4845 14.3883L74.1819 15.4264L68.7188 13.8426L71.0796 5.69824Z" fill="#19397F"/>
<path d="M58.5385 116.077C26.8093 116.077 1 90.2677 1 58.5385C1 26.8093 26.8093 1 58.5385 1C90.2677 1 116.077 26.8093 116.077 58.5385C116.077 90.2677 90.2677 116.077 58.5385 116.077ZM58.5385 1.261C26.9576 1.261 1.261 26.9576 1.261 58.5385C1.261 90.1194 26.9576 115.816 58.5385 115.816C90.1194 115.816 115.816 90.1194 115.816 58.5385C115.816 26.9576 90.1194 1.261 58.5385 1.261Z" fill="#3E8BEF"/>
<defs>
<linearGradient id="paint0_linear_862_1872" x1="58.5379" y1="34.6901" x2="34.4942" y2="34.6901" gradientUnits="userSpaceOnUse">
<stop offset="0.0282" stop-opacity="0.6"/>
<stop offset="0.1656" stop-opacity="0.5152"/>
<stop offset="1" stop-opacity="0"/>
</linearGradient>
<linearGradient id="paint1_linear_862_1872" x1="58.5383" y1="82.202" x2="82.582" y2="82.202" gradientUnits="userSpaceOnUse">
<stop offset="0.0282" stop-opacity="0.6"/>
<stop offset="0.1656" stop-opacity="0.5152"/>
<stop offset="1" stop-opacity="0"/>
</linearGradient>
</defs>
</svg>
